<?xml version="1.0" encoding="utf-8"?>
<!-- Generator: Adobe Illustrator 24.0.1, SVG Export Plug-In . SVG Version: 6.00 Build 0)  -->
<svg version="1.1" id="Layer_1" xmlns="http://www.w3.org/2000/svg" xmlns:xlink="http://www.w3.org/1999/xlink" x="0px" y="0px"
	 viewBox="0 0 150 70" style="enable-background:new 0 0 150 70;" xml:space="preserve">
<style type="text/css">
	.st0{fill:#FFFFFF;stroke:#9C1428;stroke-width:0.4266;stroke-miterlimit:10;}
	.st1{fill:#FFFFFF;}
	.st2{fill:#9C1428;}
</style>
<g>
	<g>
		<g>
			<rect x="4.2" y="15.9" width="67.1" height="28.2"/>
			<polyline class="st0" points="71.4,44.2 145.8,44.2 145.8,15.9 71.4,15.9 			"/>
			<g>
				<g>
					<path class="st1" d="M8.1,39.6V20.4h3.7c2.5,0,4.3,0.4,5.3,1.2c1,0.8,1.6,2.1,1.6,3.9c0,1-0.2,1.9-0.6,2.6
						c-0.4,0.7-1,1.2-1.8,1.6c0.9,0.3,1.6,0.9,2.1,1.6c0.4,0.7,0.7,1.7,0.7,2.8c0,0.9-0.1,1.7-0.4,2.4c-0.3,0.7-0.7,1.3-1.3,1.8
						c-0.6,0.5-1.2,0.8-2,1c-0.8,0.2-2,0.3-3.7,0.3H8.1z M11.8,28.4h0.4c1,0,1.7-0.2,2.2-0.6c0.5-0.4,0.7-1,0.7-1.8
						c0-0.9-0.2-1.5-0.7-1.9c-0.5-0.4-1.2-0.6-2.2-0.6h-0.4V28.4z M11.8,36.2c0.1,0,0.2,0,0.3,0c0.1,0,0.2,0,0.3,0
						c1,0,1.7-0.2,2.1-0.6c0.4-0.4,0.7-1,0.7-1.9c0-0.9-0.2-1.6-0.7-2c-0.4-0.4-1.2-0.6-2.2-0.6h-0.5V36.2z"/>
					<path class="st1" d="M21.2,39.6V20.4H25v15.5h4.4v3.8H21.2z"/>
					<path class="st1" d="M29.5,39.6L34,20.4h4l4.3,19.2h-3.8l-0.6-3.4h-3.9l-0.6,3.4H29.5z M34.6,33.3h2.6
						c-0.3-1.3-0.5-2.7-0.7-4.2c-0.2-1.5-0.4-3-0.6-4.7c-0.2,1.4-0.4,2.9-0.6,4.4C35.1,30.2,34.8,31.7,34.6,33.3z"/>
					<path class="st1" d="M53.5,39.4c-0.4,0.1-0.7,0.3-1.1,0.3c-0.4,0.1-0.7,0.1-1.1,0.1c-2.4,0-4.4-0.9-6-2.7
						c-1.5-1.8-2.3-4.1-2.3-7c0-3,0.7-5.4,2.2-7.3c1.5-1.8,3.4-2.8,5.9-2.8c0.4,0,0.9,0,1.3,0.1c0.4,0.1,0.8,0.2,1.1,0.3v3.6
						c-0.4-0.1-0.7-0.3-1.1-0.3c-0.3-0.1-0.7-0.1-1-0.1c-1.3,0-2.3,0.6-3.1,1.7c-0.8,1.1-1.2,2.6-1.2,4.5c0,1.8,0.4,3.3,1.2,4.4
						c0.8,1.1,1.9,1.7,3.2,1.7c0.3,0,0.7,0,1-0.1c0.3-0.1,0.7-0.2,1-0.3V39.4z"/>
					<path class="st1" d="M55.9,39.6V20.4h3.7v8.4l3.8-8.4h4l-4,8.8l4.1,10.4h-4.1l-3.8-9.4v9.4H55.9z"/>
				</g>
			</g>
			<g>
				<g>
					<path class="st2" d="M85.4,39.4c-0.4,0.1-0.7,0.3-1.1,0.3c-0.4,0.1-0.7,0.1-1.1,0.1c-2.4,0-4.4-0.9-6-2.7
						c-1.5-1.8-2.3-4.1-2.3-7c0-3,0.7-5.4,2.2-7.3c1.5-1.8,3.4-2.8,5.9-2.8c0.4,0,0.9,0,1.3,0.1c0.4,0.1,0.8,0.2,1.1,0.3v3.6
						c-0.4-0.1-0.7-0.3-1.1-0.3c-0.3-0.1-0.7-0.1-1-0.1c-1.3,0-2.3,0.6-3.1,1.7C79.4,26.6,79,28.1,79,30c0,1.8,0.4,3.3,1.2,4.4
						c0.8,1.1,1.9,1.7,3.2,1.7c0.3,0,0.7,0,1-0.1c0.3-0.1,0.7-0.2,1-0.3V39.4z"/>
					<path class="st2" d="M87.7,39.6V20.4h3.8v7.1h4.3v-7.1h3.8v19.2h-3.8v-8.4h-4.3v8.4H87.7z"/>
					<path class="st2" d="M102.7,39.6V20.4h8.1V24h-4.4v3.9h4v3.5h-4v4.5h4.4v3.8H102.7z"/>
					<path class="st2" d="M113.3,39.6V20.4h4c2.2,0,3.8,0.4,4.8,1.3c1,0.9,1.5,2.2,1.5,4.1c0,1.4-0.3,2.5-0.8,3.3
						c-0.5,0.8-1.3,1.4-2.3,1.7l3.7,8.8h-4l-3.1-7.9v7.9H113.3z M117,28.7c0,0,0.1,0,0.2,0c0.1,0,0.2,0,0.2,0c0.8,0,1.5-0.2,1.9-0.7
						c0.4-0.5,0.6-1.1,0.6-2.1c0-0.9-0.2-1.6-0.6-2c-0.4-0.4-1-0.6-1.9-0.6c-0.1,0-0.2,0-0.3,0c-0.1,0-0.1,0-0.2,0L117,28.7z"/>
					<path class="st2" d="M125.9,39.6V20.4h3.9v19.2H125.9z"/>
					<path class="st2" d="M133,39.6V20.4h8.1V24h-4.4v3.9h4v3.5h-4v4.5h4.4v3.8H133z"/>
				</g>
			</g>
		</g>
	</g>
	<g>
		<path d="M10,51.3c0-0.9-0.1-1.9-0.1-2.6h0c-0.2,0.7-0.5,1.5-0.8,2.3l-1.1,3H7.5l-1-2.9c-0.3-0.9-0.5-1.6-0.7-2.4h0
			c0,0.8-0.1,1.8-0.1,2.7L5.5,54H4.7l0.4-6.1h1l1,2.9c0.3,0.7,0.5,1.4,0.6,2.1h0c0.2-0.6,0.4-1.3,0.6-2.1l1.1-2.9h1L11,54h-0.8
			L10,51.3z"/>
		<path d="M19,51.1h-2.4v2.2h2.6V54h-3.4v-6.1h3.3v0.7h-2.5v1.9H19V51.1z"/>
		<path d="M23.9,47.9c0.5-0.1,1-0.1,1.7-0.1c1.1,0,1.9,0.3,2.5,0.8c0.5,0.5,0.9,1.2,0.9,2.2c0,1-0.3,1.8-0.9,2.4
			c-0.6,0.6-1.5,0.9-2.7,0.9c-0.6,0-1,0-1.4-0.1V47.9z M24.7,53.3c0.2,0,0.5,0,0.8,0c1.7,0,2.6-0.9,2.6-2.6c0-1.4-0.8-2.4-2.5-2.4
			c-0.4,0-0.7,0-0.9,0.1V53.3z"/>
		<path d="M34.3,47.9V54h-0.8v-6.1H34.3z"/>
		<path d="M40.3,52L39.6,54h-0.8l2.1-6.1h0.9l2.1,6.1h-0.8L42.4,52H40.3z M42.3,51.4l-0.6-1.8c-0.1-0.4-0.2-0.8-0.3-1.1h0
			c-0.1,0.4-0.2,0.7-0.3,1.1l-0.6,1.8H42.3z"/>
		<path d="M58.2,53.8c-0.3,0.1-0.9,0.3-1.6,0.3c-1.7,0-3-1.1-3-3.1c0-1.9,1.3-3.2,3.2-3.2c0.8,0,1.2,0.2,1.4,0.3l-0.2,0.6
			c-0.3-0.1-0.7-0.3-1.2-0.3c-1.4,0-2.4,0.9-2.4,2.5c0,1.5,0.9,2.5,2.3,2.5c0.5,0,1-0.1,1.3-0.3L58.2,53.8z"/>
		<path d="M67.9,50.8c0,2.1-1.3,3.2-2.8,3.2c-1.6,0-2.7-1.2-2.7-3.1c0-1.9,1.2-3.2,2.8-3.2C66.8,47.8,67.9,49,67.9,50.8z M63.1,50.9
			c0,1.3,0.7,2.5,1.9,2.5c1.2,0,2-1.1,2-2.5c0-1.2-0.6-2.5-1.9-2.5C63.8,48.4,63.1,49.6,63.1,50.9z"/>
		<path d="M72.5,47.9c0.4-0.1,1-0.1,1.5-0.1c0.8,0,1.4,0.2,1.8,0.5c0.3,0.3,0.5,0.7,0.5,1.2c0,0.8-0.5,1.3-1.1,1.6v0
			c0.5,0.2,0.8,0.6,0.9,1.2c0.2,0.9,0.3,1.4,0.5,1.7h-0.8c-0.1-0.2-0.2-0.7-0.4-1.5c-0.2-0.8-0.5-1.2-1.2-1.2h-0.7V54h-0.8V47.9z
			 M73.3,50.7h0.8c0.8,0,1.4-0.5,1.4-1.2c0-0.8-0.6-1.1-1.4-1.1c-0.4,0-0.7,0-0.8,0.1V50.7z"/>
		<path d="M81,47.9c0.4-0.1,0.9-0.1,1.5-0.1c0.8,0,1.3,0.2,1.7,0.5c0.3,0.3,0.5,0.7,0.5,1.3c0,0.6-0.2,1-0.5,1.3
			c-0.4,0.4-1.1,0.7-1.9,0.7c-0.2,0-0.5,0-0.6-0.1V54H81V47.9z M81.8,50.9c0.2,0,0.4,0.1,0.7,0.1c0.9,0,1.5-0.5,1.5-1.3
			c0-0.8-0.6-1.2-1.4-1.2c-0.3,0-0.6,0-0.7,0.1V50.9z"/>
		<path d="M94.6,50.8c0,2.1-1.3,3.2-2.8,3.2c-1.6,0-2.7-1.2-2.7-3.1c0-1.9,1.2-3.2,2.8-3.2C93.6,47.8,94.6,49,94.6,50.8z M89.9,50.9
			c0,1.3,0.7,2.5,1.9,2.5c1.2,0,2-1.1,2-2.5c0-1.2-0.6-2.5-1.9-2.5C90.5,48.4,89.9,49.6,89.9,50.9z"/>
		<path d="M99.3,47.9c0.4-0.1,1-0.1,1.5-0.1c0.8,0,1.4,0.2,1.8,0.5c0.3,0.3,0.5,0.7,0.5,1.2c0,0.8-0.5,1.3-1.1,1.6v0
			c0.5,0.2,0.7,0.6,0.9,1.2c0.2,0.9,0.3,1.4,0.5,1.7h-0.8c-0.1-0.2-0.2-0.7-0.4-1.5c-0.2-0.8-0.5-1.2-1.2-1.2h-0.7V54h-0.8V47.9z
			 M100.1,50.7h0.8c0.8,0,1.4-0.5,1.4-1.2c0-0.8-0.6-1.1-1.4-1.1c-0.4,0-0.7,0-0.8,0.1V50.7z"/>
		<path d="M108.8,52l-0.6,1.9h-0.8l2.1-6.1h1l2.1,6.1h-0.8l-0.7-1.9H108.8z M110.8,51.4l-0.6-1.8c-0.1-0.4-0.2-0.8-0.3-1.1h0
			c-0.1,0.4-0.2,0.7-0.3,1.1l-0.6,1.8H110.8z"/>
		<path d="M117.4,48.5h-1.9v-0.7h4.5v0.7h-1.9V54h-0.8V48.5z"/>
		<path d="M125.2,47.9V54h-0.8v-6.1H125.2z"/>
		<path d="M135.4,50.8c0,2.1-1.3,3.2-2.8,3.2c-1.6,0-2.7-1.2-2.7-3.1c0-1.9,1.2-3.2,2.8-3.2C134.3,47.8,135.4,49,135.4,50.8z
			 M130.6,50.9c0,1.3,0.7,2.5,1.9,2.5c1.2,0,2-1.1,2-2.5c0-1.2-0.6-2.5-1.9-2.5C131.3,48.4,130.6,49.6,130.6,50.9z"/>
		<path d="M140,54v-6.1h0.9l2,3.1c0.5,0.7,0.8,1.4,1.1,2l0,0c-0.1-0.8-0.1-1.6-0.1-2.5v-2.6h0.7V54h-0.8l-1.9-3.1
			c-0.4-0.7-0.8-1.4-1.1-2l0,0c0,0.8,0.1,1.5,0.1,2.5V54H140z"/>
	</g>
</g>
</svg>
